# xmcd CD database file
#
# Track frame offsets:
#	150
#	164053
#	218957
#
# Disc length: 3397 seconds
#
# Revision: 0
# Processed by: cddbd v1.5.2PL0 Copyright (c) Steve Scherf et al.
# Submitted via: CDex 1.51
#
DISCID=290d4303
DTITLE=Robert Glasper Trio and Bilal - Festival Jazz à la Villette 2010 [1|2]
DYEAR=2010
DGENRE=Jazz
TTITLE0=Robert Glasper Trio and Bilal - Down Time
TTITLE1=Robert Glasper Trio and Bilal - Little B's Poem (feat. Bilal)
TTITLE2=Robert Glasper Trio and Bilal - Body&Soul (feat. Bilal)
EXTD=YEAR: 2010
EXTT0=
EXTT1=
EXTT2=
PLAYORDER=
